<svg width="466" height="68" viewBox="0 0 466 68" fill="none" xmlns="http://www.w3.org/2000/svg">
<ellipse cx="74.3488" cy="34.3438" rx="21" ry="17.5" fill="#B0A0EB"/>
<ellipse cx="201.349" cy="34.3438" rx="21" ry="17.5" fill="#B0A0EB"/>
<ellipse cx="357" cy="36" rx="21" ry="17" fill="#B0A0EB"/>
<path d="M9.0675 34.2812C9.0675 31.5729 -0.161558 29.1146 0.817609 26.7812C1.81761 24.4271 3.26553 22.3958 5.16136 20.6875C7.07803 18.9583 9.41136 17.6042 12.1614 16.625C14.9322 15.6458 18.0884 15.1562 21.6301 15.1562C23.1718 15.1562 24.7239 15.25 26.2864 15.4375C27.8489 15.625 29.3489 15.8958 30.7864 16.25C32.2447 16.5833 33.6093 16.9896 34.8801 17.4688C36.1509 17.9271 37.2551 18.4375 38.1926 19L33.9114 25.9688C31.8905 25.0312 29.9739 24.3438 28.1614 23.9062C26.3697 23.4688 24.5468 23.25 22.6926 23.25C20.5676 23.25 18.6614 23.5312 16.9739 24.0938C15.2864 24.6354 13.8489 25.4062 12.6614 26.4062C11.4947 27.3854 10.5989 28.5521 9.97386 29.9062C9.36969 31.2396 9.0675 32.6979 9.0675 34.2812C9.0675 35.8646 9.39052 37.3333 10.0364 38.6875C10.703 40.0208 11.6301 41.1771 12.8176 42.1562C14.0259 43.1146 15.4739 43.875 17.1614 44.4375C18.8697 44.9792 20.7655 45.25 22.8489 45.25C25.1405 45.25 27.2968 44.9271 29.3176 44.2812C31.3593 43.6354 33.2551 42.7708 35.0051 41.6875L39.2864 48.6562C38.1822 49.3229 36.9843 49.9479 35.6926 50.5312C34.4009 51.0938 33.0155 51.5833 31.5364 52C30.078 52.4167 28.5364 52.7396 26.9114 52.9688C25.3072 53.2188 23.6405 53.3438 21.9114 53.3438C18.3905 53.3438 15.2343 52.8646 12.4426 51.9062C9.65094 50.9479 7.28636 49.625 5.34886 47.9375C3.41136 46.2292 1.92178 44.2188 0.880109 41.9062C-0.140725 39.5938 9.0675 37.0104 9.0675 34.2812Z" fill="#052A42"/>
<path d="M41.0364 0.84375H50.2864V52.6875H41.0364V0.84375Z" fill="#052A42"/>
<path d="M51.6801 34.25C51.6801 31.6042 52.2113 29.125 53.2738 26.8125C54.3572 24.5 55.8884 22.4792 57.8676 20.75C59.8676 19.0208 62.2738 17.6562 65.0863 16.6562C67.9197 15.6562 71.0967 15.1562 74.6176 15.1562C78.1384 15.1562 81.3051 15.6562 84.1176 16.6562C86.9509 17.6562 89.3572 19.0208 91.3363 20.75C93.3363 22.4792 94.8676 24.5 95.9301 26.8125C97.0134 29.125 97.5551 31.6042 97.5551 34.25C97.5551 35.2531 97.4772 36.2323 97.3215 37.1875C97.2424 37.6729 97.1431 38.152 97.0238 38.625C96.9696 38.8397 96.9113 39.0532 96.8489 39.2654C96.6055 40.0921 96.2992 40.8995 95.9301 41.6875C95.3065 43.0446 94.2328 44.5313 93.2864 45.6875C93.1715 45.8278 93.0628 45.9598 92.9574 46.0859C92.4514 46.691 92.0202 47.1588 91.3363 47.75C89.3572 49.4792 86.9509 50.8438 84.1176 51.8438C81.3051 52.8438 78.1384 53.3438 74.6176 53.3438C71.0967 53.3438 67.9197 52.8438 65.0863 51.8438C62.2738 50.8438 59.8676 49.4792 57.8676 47.75C55.8884 46.0208 54.3572 44 53.2738 41.6875C52.2113 39.375 51.6801 36.8958 51.6801 34.25ZM61.3988 34.25C61.3988 35.7292 61.6905 37.1354 62.2738 38.4688C62.878 39.7812 63.7426 40.9479 64.8676 41.9688C66.0134 42.9688 67.3988 43.7708 69.0238 44.375C70.6697 44.9583 72.5342 45.25 74.6176 45.25C76.7009 45.25 78.5551 44.9583 80.1801 44.375C81.8259 43.7708 83.2113 42.9688 84.3363 41.9688C85.4822 40.9479 86.3467 39.7812 86.9301 38.4688C87.1588 37.964 87.3442 37.4488 87.4863 36.9232C87.7197 36.0603 87.8363 35.1692 87.8363 34.25C87.8363 32.7708 87.5342 31.3646 86.9301 30.0312C86.3467 28.6979 85.4822 27.5312 84.3363 26.5312C83.2113 25.5104 81.8259 24.7083 80.1801 24.125C78.5551 23.5208 76.7009 23.2188 74.6176 23.2188C72.5342 23.2188 70.6697 23.5208 69.0238 24.125C67.3988 24.7083 66.0134 25.5104 64.8676 26.5312C63.7426 27.5312 62.878 28.6979 62.2738 30.0312C61.6905 31.3646 61.3988 32.7708 61.3988 34.25Z" fill="#052A42"/>
<path d="M100.624 41.4375C103.124 42.9375 105.874 44.0417 108.874 44.75C111.874 45.4583 114.947 45.8125 118.093 45.8125C120.218 45.8125 121.988 45.6667 123.405 45.375C124.822 45.0833 125.957 44.7083 126.811 44.25C127.665 43.7917 128.27 43.2708 128.624 42.6875C128.978 42.1042 129.155 41.5104 129.155 40.9062C129.155 40.0312 128.77 39.2812 127.999 38.6562C127.249 38.0312 125.999 37.7188 124.249 37.7188C123.436 37.7188 122.561 37.7708 121.624 37.875C120.686 37.9792 119.697 38.0938 118.655 38.2188C117.634 38.3229 116.561 38.4271 115.436 38.5312C114.332 38.6354 113.207 38.6875 112.061 38.6875C109.561 38.6875 107.426 38.4167 105.655 37.875C103.905 37.3333 102.478 36.5938 101.374 35.6562C100.27 34.7188 99.4676 33.6146 98.9676 32.3438C98.4676 31.0521 98.2176 29.6667 98.2176 28.1875C98.2176 26.3125 98.6551 24.5833 99.5301 23C100.405 21.4167 101.655 20.0521 103.28 18.9062C104.905 17.7396 106.863 16.8333 109.155 16.1875C111.468 15.5417 114.04 15.2188 116.874 15.2188C118.353 15.2188 119.895 15.3125 121.499 15.5C123.124 15.6667 124.718 15.8958 126.28 16.1875C127.843 16.4792 129.343 16.8229 130.78 17.2188C132.218 17.5938 133.488 18 134.593 18.4375L131.686 25.625C129.332 24.75 126.978 24.0625 124.624 23.5625C122.29 23.0417 119.884 22.7812 117.405 22.7812C115.676 22.7812 114.207 22.9167 112.999 23.1875C111.811 23.4375 110.843 23.7812 110.093 24.2188C109.343 24.6354 108.79 25.125 108.436 25.6875C108.103 26.2292 107.936 26.8021 107.936 27.4062C107.936 27.8438 108.02 28.2396 108.186 28.5938C108.374 28.9479 108.665 29.2604 109.061 29.5312C109.478 29.7812 110.009 29.9792 110.655 30.125C111.322 30.25 112.134 30.3125 113.093 30.3125C113.968 30.3125 114.895 30.2604 115.874 30.1562C116.853 30.0521 117.874 29.9479 118.936 29.8438C119.999 29.7188 121.093 29.6042 122.218 29.5C123.363 29.3958 124.53 29.3438 125.718 29.3438C127.926 29.3438 129.853 29.6042 131.499 30.125C133.165 30.6458 134.54 31.375 135.624 32.3125C136.707 33.25 137.52 34.3542 138.061 35.625C138.603 36.8958 138.874 38.2812 138.874 39.7812C138.874 41.7188 138.426 43.5208 137.53 45.1875C136.634 46.8542 135.301 48.3021 133.53 49.5312C131.759 50.7396 129.551 51.6875 126.905 52.375C124.28 53.0625 121.238 53.4062 117.78 53.4062C115.655 53.4062 113.603 53.2708 111.624 53C109.645 52.75 107.759 52.4062 105.968 51.9688C104.176 51.5104 102.488 50.9792 100.905 50.375C99.3426 49.7708 97.9155 49.125 96.6238 48.4375L89.5 44C92.4176 37.9838 94.8477 37.4641 100.624 41.4375Z" fill="#052A42"/>
<path d="M147.318 34.4062C147.318 31.9062 137.516 29.5833 138.536 27.3125C139.557 25.0208 141.026 23 142.943 21.25C144.859 19.5 147.203 18.1042 149.974 17.0625C152.766 16.0208 155.932 15.5 159.474 15.5C162.995 15.5 166.161 16.0312 168.974 17.0938C171.807 18.1354 174.203 19.5729 176.161 21.4062C178.141 23.2396 179.651 25.3958 180.693 27.875C181.755 30.3542 182.286 33.0104 182.286 35.8438C182.286 36.1979 182.276 36.5833 182.255 37C182.255 37.3958 182.234 37.7604 182.193 38.0938H147.318C147.713 39.1979 148.349 40.2083 149.224 41.125C150.12 42.0417 151.234 42.8333 152.568 43.5C153.901 44.1667 155.443 44.6875 157.193 45.0625C158.943 45.4167 160.88 45.5938 163.005 45.5938C165.13 45.5938 167.245 45.375 169.349 44.9375C171.453 44.4792 173.463 43.9062 175.38 43.2188L178.505 50.2812C177.297 50.8438 176.068 51.3438 174.818 51.7812C173.588 52.1979 172.297 52.5521 170.943 52.8438C169.609 53.1146 168.203 53.3229 166.724 53.4688C165.266 53.6146 163.724 53.6875 162.099 53.6875C157.953 53.6875 154.318 53.1875 151.193 52.1875C148.068 51.1875 145.453 49.8229 143.349 48.0938C141.245 46.3646 139.661 44.3333 138.599 42C137.536 39.6667 147.318 37.0938 147.318 34.4062ZM172.474 30.875C172.141 29.8542 171.62 28.9062 170.911 28.0312C170.224 27.1354 169.359 26.3646 168.318 25.7188C167.276 25.0521 166.068 24.5312 164.693 24.1562C163.318 23.7812 161.807 23.5938 160.161 23.5938C158.411 23.5938 156.818 23.7917 155.38 24.1875C153.943 24.5833 152.682 25.1146 151.599 25.7812C150.516 26.4479 149.609 27.2188 148.88 28.0938C148.172 28.9688 147.651 29.8958 147.318 30.875H172.474Z" fill="#052A42"/>
<path d="M179.968 34.4062C179.968 31.4688 180.52 28.8229 181.624 26.4688C182.728 24.0938 184.249 22.0729 186.186 20.4062C188.145 18.7188 190.457 17.4271 193.124 16.5312C195.811 15.6146 198.718 15.1562 201.843 15.1562C203.176 15.1562 204.488 15.2396 205.78 15.4062C207.093 15.5729 208.343 15.8021 209.53 16.0938C210.738 16.3854 211.863 16.7396 212.905 17.1562C213.968 17.5521 214.905 17.9896 215.718 18.4688V0.84375H224.968V52.6875H215.718V49.2188C214.905 49.7812 213.947 50.3125 212.843 50.8125C211.738 51.3125 210.551 51.75 209.28 52.125C208.009 52.5 206.686 52.7917 205.311 53C203.957 53.2292 202.613 53.3438 201.28 53.3438C198.155 53.3438 195.28 52.8854 192.655 51.9688C190.051 51.0521 187.811 49.7604 185.936 48.0938C184.061 46.4271 182.593 44.4375 181.53 42.125C180.488 39.7917 179.968 37.2188 179.968 34.4062ZM189.686 34.4062C189.686 35.8854 189.978 37.2812 190.561 38.5938C191.165 39.9062 192.02 41.0625 193.124 42.0625C194.249 43.0417 195.593 43.8229 197.155 44.4062C198.738 44.9688 200.509 45.25 202.468 45.25C203.718 45.25 204.968 45.1354 206.218 44.9062C207.468 44.6562 208.665 44.3125 209.811 43.875C210.978 43.4375 212.061 42.9062 213.061 42.2812C214.082 41.6562 214.968 40.9583 215.718 40.1875V27.4062C214.78 26.6562 213.79 26.0208 212.749 25.5C211.707 24.9792 210.645 24.5521 209.561 24.2188C208.478 23.8854 207.384 23.6458 206.28 23.5C205.176 23.3333 204.103 23.25 203.061 23.25C200.936 23.25 199.04 23.5417 197.374 24.125C195.728 24.6875 194.332 25.4688 193.186 26.4688C192.061 27.4688 191.197 28.6458 190.593 30C189.988 31.3542 189.686 32.8229 189.686 34.4062Z" fill="#052A42"/>
<path d="M252.774 34.0938C252.774 31.5938 242.972 29.2396 243.993 26.9688C245.013 24.6771 246.482 22.6562 248.399 20.9062C250.316 19.1562 252.659 17.7604 255.43 16.7188C258.222 15.6771 261.388 15.1562 264.93 15.1562C268.451 15.1562 271.618 15.6875 274.43 16.75C277.263 17.7917 279.659 19.2292 281.618 21.0625C283.597 22.8958 285.107 25.0521 286.149 27.5312C287.211 30.0104 287.743 32.6667 287.743 35.5C287.743 35.8542 287.732 36.2396 287.711 36.6562C287.711 37.0521 287.691 37.4167 287.649 37.75H252.774C253.17 38.8542 253.805 39.8646 254.68 40.7812C255.576 41.6979 256.691 42.4896 258.024 43.1562C259.357 43.8229 260.899 44.3438 262.649 44.7188C264.399 45.0729 266.336 45.25 268.461 45.25C270.586 45.25 272.701 45.0312 274.805 44.5938C276.909 44.1354 278.92 43.5625 280.836 42.875L283.961 49.9375C282.753 50.5 281.524 51 280.274 51.4375C279.045 51.8542 277.753 52.2083 276.399 52.5C275.066 52.7708 273.659 52.9792 272.18 53.125C270.722 53.2708 269.18 53.3438 267.555 53.3438C263.409 53.3438 259.774 52.8438 256.649 51.8438C253.524 50.8438 250.909 49.4792 248.805 47.75C246.701 46.0208 245.118 43.9896 244.055 41.6562C242.993 39.3229 252.774 36.7812 252.774 34.0938ZM277.93 30.5312C277.597 29.5104 277.076 28.5625 276.368 27.6875C275.68 26.7917 274.816 26.0208 273.774 25.375C272.732 24.7083 271.524 24.1875 270.149 23.8125C268.774 23.4375 267.263 23.25 265.618 23.25C263.868 23.25 262.274 23.4479 260.836 23.8438C259.399 24.2396 258.138 24.7708 257.055 25.4375C255.972 26.1042 255.066 26.875 254.336 27.75C253.628 28.625 253.107 29.5521 252.774 30.5312H277.93Z" fill="#052A42"/>
<path d="M291.561 0.84375H300.811V52.6875H296.186H291.561V0.84375Z" fill="#052A42"/>
<path d="M306.536 0.84375H315.786V52.6875H306.536V0.84375Z" fill="#052A42"/>
<path d="M321.511 15.8125H330.761V52.6875H321.511V15.8125Z" fill="#052A42"/>
<path d="M345.236 67.75H335.986V15.8125H345.236V19.2812C346.049 18.7188 347.007 18.1875 348.111 17.6875C349.216 17.1875 350.403 16.75 351.674 16.375C352.945 16 354.257 15.7083 355.611 15.5C356.966 15.2708 358.32 15.1562 359.674 15.1562C362.799 15.1562 365.663 15.6146 368.268 16.5312C370.893 17.4479 373.143 18.7396 375.018 20.4062C376.893 22.0729 378.351 24.0729 379.393 26.4062C380.455 28.7188 380.986 31.2812 380.986 34.0938C380.986 35.8977 380.778 37.5957 380.362 39.1875C380.318 39.3553 380.272 39.522 380.223 39.6875C379.982 40.5082 379.685 41.2998 379.33 42.0625C378.595 43.6303 377.67 45.0502 376.556 46.3223C376.448 46.4454 376.338 46.5671 376.227 46.6875C375.761 47.1909 375.264 47.6701 374.736 48.125C372.799 49.7917 370.486 51.0833 367.799 52C365.132 52.8958 362.236 53.3438 359.111 53.3438C357.778 53.3438 356.455 53.2604 355.143 53.0938C353.851 52.9271 352.601 52.6979 351.393 52.4062C350.205 52.1146 349.08 51.7708 348.018 51.375C346.976 50.9583 346.049 50.5104 345.236 50.0312V67.75ZM345.236 41.0938C346.174 41.8438 347.163 42.4792 348.205 43C349.247 43.5208 350.309 43.9479 351.393 44.2812C352.476 44.6146 353.57 44.8646 354.674 45.0312C355.778 45.1771 356.851 45.25 357.893 45.25C360.018 45.25 361.903 44.9688 363.549 44.4062C365.216 43.8229 366.611 43.0312 367.736 42.0312C368.882 41.0312 369.757 39.8542 370.361 38.5C370.966 37.1458 371.268 35.6771 371.268 34.0938C371.268 32.6146 370.966 31.2188 370.361 29.9062C369.778 28.5938 368.924 27.4479 367.799 26.4688C366.695 25.4688 365.351 24.6875 363.768 24.125C362.205 23.5417 360.445 23.25 358.486 23.25C357.236 23.25 355.986 23.375 354.736 23.625C353.486 23.8542 352.278 24.1875 351.111 24.625C349.966 25.0625 348.882 25.5938 347.861 26.2188C346.861 26.8438 345.986 27.5417 345.236 28.3125V41.0938Z" fill="#052A42"/>
<path d="M380 39.5C382.5 41 388.58 43.9792 391.58 44.6875C394.58 45.3958 397.653 45.75 400.799 45.75C402.924 45.75 404.695 45.6042 406.111 45.3125C407.528 45.0208 408.663 44.6458 409.518 44.1875C410.372 43.7292 410.976 43.2083 411.33 42.625C411.684 42.0417 411.861 41.4479 411.861 40.8438C411.861 39.9688 411.476 39.2188 410.705 38.5938C409.955 37.9688 408.705 37.6562 406.955 37.6562C406.143 37.6562 405.268 37.7083 404.33 37.8125C403.393 37.9167 402.403 38.0312 401.361 38.1562C400.341 38.2604 399.268 38.3646 398.143 38.4688C397.038 38.5729 395.913 38.625 394.768 38.625C392.268 38.625 390.132 38.3542 388.361 37.8125C386.611 37.2708 385.184 36.5312 384.08 35.5938C382.976 34.6562 382.174 33.5521 381.674 32.2812C381.174 30.9896 380.924 29.6042 380.924 28.125C380.924 26.25 381.361 24.5208 382.236 22.9375C383.111 21.3542 384.361 19.9896 385.986 18.8438C387.611 17.6771 389.57 16.7708 391.861 16.125C394.174 15.4792 396.747 15.1562 399.58 15.1562C401.059 15.1562 402.601 15.25 404.205 15.4375C405.83 15.6042 407.424 15.8333 408.986 16.125C410.549 16.4167 412.049 16.7604 413.486 17.1562C414.924 17.5312 416.195 17.9375 417.299 18.375L414.393 25.5625C412.038 24.6875 409.684 24 407.33 23.5C404.997 22.9792 402.591 22.7188 400.111 22.7188C398.382 22.7188 396.913 22.8542 395.705 23.125C394.518 23.375 393.549 23.7188 392.799 24.1562C392.049 24.5729 391.497 25.0625 391.143 25.625C390.809 26.1667 390.643 26.7396 390.643 27.3438C390.643 27.7812 390.726 28.1771 390.893 28.5312C391.08 28.8854 391.372 29.1979 391.768 29.4688C392.184 29.7188 392.716 29.9167 393.361 30.0625C394.028 30.1875 394.841 30.25 395.799 30.25C396.674 30.25 397.601 30.1979 398.58 30.0938C399.559 29.9896 400.58 29.8854 401.643 29.7812C402.705 29.6562 403.799 29.5417 404.924 29.4375C406.07 29.3333 407.236 29.2812 408.424 29.2812C410.632 29.2812 412.559 29.5417 414.205 30.0625C415.872 30.5833 417.247 31.3125 418.33 32.25C419.413 33.1875 420.226 34.2917 420.768 35.5625C421.309 36.8333 421.58 38.2188 421.58 39.7188C421.58 41.6562 421.132 43.4583 420.236 45.125C419.341 46.7917 418.007 48.2396 416.236 49.4688C414.466 50.6771 412.257 51.625 409.611 52.3125C406.986 53 403.945 53.3438 400.486 53.3438C398.361 53.3438 396.309 53.2083 394.33 52.9375C392.351 52.6875 390.466 52.3438 388.674 51.9062C386.882 51.4479 385.195 50.9167 383.611 50.3125C382.049 49.7083 376.292 46.6875 375 46L380 39.5Z" fill="#052A42"/>
<path d="M430.299 34.0938C430.299 31.5938 420.497 29.2396 421.518 26.9688C422.538 24.6771 424.007 22.6562 425.924 20.9062C427.841 19.1562 430.184 17.7604 432.955 16.7188C435.747 15.6771 438.913 15.1562 442.455 15.1562C445.976 15.1562 449.143 15.6875 451.955 16.75C454.788 17.7917 457.184 19.2292 459.143 21.0625C461.122 22.8958 462.632 25.0521 463.674 27.5312C464.736 30.0104 465.268 32.6667 465.268 35.5C465.268 35.8542 465.257 36.2396 465.236 36.6562C465.236 37.0521 465.216 37.4167 465.174 37.75H430.299C430.695 38.8542 431.33 39.8646 432.205 40.7812C433.101 41.6979 434.216 42.4896 435.549 43.1562C436.882 43.8229 438.424 44.3438 440.174 44.7188C441.924 45.0729 443.861 45.25 445.986 45.25C448.111 45.25 450.226 45.0312 452.33 44.5938C454.434 44.1354 456.445 43.5625 458.361 42.875L461.486 49.9375C460.278 50.5 459.049 51 457.799 51.4375C456.57 51.8542 455.278 52.2083 453.924 52.5C452.591 52.7708 451.184 52.9792 449.705 53.125C448.247 53.2708 446.705 53.3438 445.08 53.3438C440.934 53.3438 437.299 52.8438 434.174 51.8438C431.049 50.8438 428.434 49.4792 426.33 47.75C424.226 46.0208 422.643 43.9896 421.58 41.6562C420.518 39.3229 430.299 36.7812 430.299 34.0938ZM455.455 30.5312C455.122 29.5104 454.601 28.5625 453.893 27.6875C453.205 26.7917 452.341 26.0208 451.299 25.375C450.257 24.7083 449.049 24.1875 447.674 23.8125C446.299 23.4375 444.788 23.25 443.143 23.25C441.393 23.25 439.799 23.4479 438.361 23.8438C436.924 24.2396 435.663 24.7708 434.58 25.4375C433.497 26.1042 432.591 26.875 431.861 27.75C431.153 28.625 430.632 29.5521 430.299 30.5312H455.455Z" fill="#052A42"/>
<path d="M375 46L380 39.5C380 39.5 382.289 40.8229 381.674 40.4875C381.07 40.158 380.223 39.6875 380.223 39.6875C379.982 40.5082 379.685 41.2998 379.33 42.0625C378.595 43.6303 377.67 45.0502 376.556 46.3223C376.448 46.4454 376.338 46.5671 376.227 46.6875C376.227 46.6875 377.162 47.2224 377.786 47.5875C378.535 48.025 375 46 375 46Z" fill="#052A42"/>
<path d="M96.6238 48.4375L89.5 44C92.4176 37.9838 94.8477 37.4641 100.624 41.4375L98.8489 40.3438L96.8489 39.2654C96.6055 40.0921 96.2992 40.8995 95.9301 41.6875C95.3065 43.0446 94.2328 44.5313 93.2864 45.6875C93.1715 45.8278 93.0628 45.9598 92.9574 46.0859L93.3489 46.3737L94.8489 47.4038L96.6238 48.4375Z" fill="#052A42"/>
</svg>
